<svg width="154" height="142" viewBox="0 0 154 142" fill="none" xmlns="http://www.w3.org/2000/svg">
<g clip-path="url(#clip0)">
<path d="M97.653 77.1621C106.311 70.5537 110.77 61.5571 112.788 51.0782C115.082 39.15 114.661 27.2223 113.07 15.2845C112.587 11.6654 112.008 8.056 111.615 4.43158C111.459 3.40802 111.645 2.36139 112.146 1.45481C112.498 0.922653 113.686 0.943969 114.508 0.719818C114.611 1.22517 114.743 1.72387 114.8 2.21516C115.004 3.58287 115.067 4.97963 115.388 6.32071C116.433 10.6664 117.652 14.9909 118.652 19.356C119.335 22.3018 119.867 25.2802 120.249 28.2798C120.482 30.1695 120.191 32.1173 120.308 34.0336C120.492 37.0661 121.118 40.0992 121.031 43.1194C120.899 47.8163 120.741 52.5868 119.843 57.1752C117.905 67.3715 112.83 75.7029 104.307 81.8626C100.334 84.7351 96.512 87.7271 91.7385 89.2019C91.4372 89.3732 91.1761 89.6071 90.9727 89.8878C90.7694 90.1685 90.6286 90.4895 90.5598 90.8292C89.26 96.8741 86.1045 102.362 81.534 106.526C78.0913 109.727 74.646 113.051 70.6316 115.429C67.2851 117.405 63.236 118.389 59.3706 119.248C55.8946 119.941 52.3576 120.28 48.8134 120.261C43.8325 120.283 38.9339 118.99 34.6136 116.511C33.9811 116.163 33.5472 114.906 33.5564 114.083C33.5657 113.26 34.436 112.884 35.4636 112.603C38.6555 111.716 41.4114 113.139 44.2435 113.979C49.6011 115.581 54.807 114.843 59.6916 112.722C68.0446 109.079 74.1246 102.732 78.7264 94.9975C81.208 90.8168 81.0526 90.7016 76.3939 90.278C70.2625 89.7195 65.1161 87.2765 61.4271 82.2573C57.15 76.4374 58.56 68.7133 64.4787 64.5459C66.3314 63.2323 68.4085 63.3217 70.4593 63.4847C74.9961 63.8639 79.2672 65.7815 82.5651 68.92C86.0993 72.1668 89.1936 75.7229 90.2762 80.6103C90.5416 81.7888 91.2632 81.812 92.1622 81.1429C93.9819 79.7785 95.8233 78.4828 97.653 77.1621ZM77.7404 73.2471C76.1689 71.9357 74.6285 70.5988 73.0208 69.3173C72.0266 68.5292 71.2018 68.7817 70.4024 69.7938C69.1793 71.3964 68.5014 73.3486 68.4683 75.3644C68.4351 77.3801 69.0483 79.3536 70.2181 80.9955C72.82 84.7652 76.6432 85.2593 80.7217 85.0926C81.0419 85.0811 81.5595 84.2223 81.5878 83.7394C81.7933 79.7021 80.0978 76.4023 77.7404 73.2471ZM108.091 69.0139C108.229 69.0655 108.366 69.1265 108.498 69.1824L112.619 61.3051C112.424 61.205 112.238 61.1058 112.047 61.0109L108.091 69.0139ZM80.6569 96.1441L81.1512 96.3973L83.2512 91.203L82.6504 90.9678L80.6569 96.1441Z" fill="#FAAA31"/>
<path d="M24.5633 123.473C22.2504 120.108 19.8816 116.39 17.1996 112.903C16.2668 111.682 14.9801 110.866 15.7427 109.112C15.9066 108.752 16.1173 108.206 16.4001 108.138C21.172 107.02 24.9974 103.948 29.353 101.975C32.2725 100.661 35.3496 99.8771 38.5722 100.717C39.213 100.885 39.7028 101.523 40.3002 101.987C39.8673 102.516 39.5109 103.285 38.9371 103.601C34.7414 105.884 30.5159 108.132 26.2714 110.283C24.9381 110.961 25.0882 111.567 25.7756 112.667C27.3409 115.207 28.7079 117.874 30.2431 120.43C30.9596 121.496 31.7369 122.52 32.5711 123.497C32.6391 123.579 32.8495 123.571 32.8935 123.657C33.3464 124.525 34.3673 125.916 34.1113 126.195C33.331 127.057 32.2952 127.647 31.1557 127.877C27.8146 128.488 26.6254 125.561 24.5633 123.473Z" fill="#FAAA31"/>
</g>
<defs>
<clipPath id="clip0">
<rect width="147.417" height="62.1266" fill="white" transform="translate(0 93.5669) rotate(-39.3983)"/>
</clipPath>
</defs>
</svg>
