<svg width="254" height="230" viewBox="0 0 254 230" fill="none" xmlns="http://www.w3.org/2000/svg">
<path d="M252.782 119.34C252.692 119.6 252.462 120.23 252.172 121.03L253.092 121.47C253.282 122.17 254.352 122.92 253.702 123.88C253.052 124.84 254.702 125.64 253.482 126.34C253.682 128.14 252.412 129.44 251.582 130.7C250.752 131.96 250.582 133.27 249.492 134.26C248.573 135.28 247.793 136.416 247.172 137.64L245.062 137.74L245.502 139.17L244.502 140.3C244.752 141.07 244.982 141.8 245.262 142.65L244.052 144.03L245.232 144.45L243.592 145.62L244.102 146.22C242.302 146.9 240.692 145.28 238.702 146.06C237.472 146.95 236.552 148.76 234.702 149.43C233.992 149.68 234.592 150.98 233.392 150.82C232.962 150.82 233.282 152.15 232.272 151.89C231.892 153.14 230.772 153.64 229.892 154.43C229.14 155.14 228.469 155.932 227.892 156.79C227.402 157.5 226.892 158.19 226.352 158.88C225.844 159.474 225.374 160.099 224.942 160.75C224.612 161.33 224.632 162.31 224.192 162.56C223.889 162.701 223.625 162.916 223.426 163.185C223.227 163.454 223.098 163.769 223.052 164.1L221.742 163.32C220.612 163.87 219.482 164.39 218.362 163.01V160.15C216.202 158.94 213.952 157.87 212.942 155.15C213.022 154.24 212.582 152.96 213.452 151.9C212.182 149.37 213.282 147.23 214.452 145.12C215.959 142.595 217.868 140.332 220.102 138.42C218.772 136.42 217.392 134.58 216.262 132.58C215.355 131.252 214.779 129.726 214.582 128.13C214.582 126.5 214.022 124.8 214.992 123.13C215.422 122.39 214.992 121.31 215.492 120.34C215.736 119.708 216.048 119.105 216.422 118.54C216.662 118.24 216.652 117.73 216.852 116.93C217.302 116.51 218.422 115.93 218.662 115.13C219.002 113.94 220.522 114.4 220.502 113.01L221.332 113.64L223.412 113.03L224.182 114.49C223.642 115.49 223.052 116.55 222.362 117.78L225.642 117.46L226.412 118.23C226.052 118.94 225.682 119.66 225.202 120.62L227.542 120.86C227.342 121.86 227.142 122.79 226.942 123.74L225.822 124.74C226.072 124.99 226.172 125.12 226.192 125.1C226.552 124.91 226.902 124.69 227.322 124.44C227.462 124.82 227.552 125.05 227.672 125.36L225.322 126.54L226.592 126.97L224.592 128.97L227.312 131.12C227.948 131.211 228.596 131.148 229.201 130.935C229.807 130.723 230.353 130.368 230.792 129.9C233.232 127.79 235.912 125.9 238.312 123.83C240.712 121.76 243.392 119.54 245.152 116.63C245.665 115.968 246.252 115.368 246.902 114.84H249.842L250.542 115.74L249.542 118.74L252.032 118.06L252.782 119.34Z" fill="#051C4C"/>
<path d="M79.7119 176.78L77.1619 177.57L77.7319 176.34C77.1019 175.4 76.3919 174.56 75.1019 174.74L74.8519 173.74H72.5919C72.3719 173.52 72.172 173.41 72.122 173.26C71.782 172.26 71.702 170.98 71.122 170.17C70.312 169.17 70.712 168.09 70.682 167.07C70.7382 166.219 70.9064 165.378 71.182 164.57C71.9187 161.626 73.0241 158.787 74.4719 156.12C75.3678 154.467 76.3699 152.874 77.4719 151.35C78.5219 149.87 79.7619 148.51 80.9619 147.05C80.6419 146.84 80.2819 146.6 79.9619 146.38C76.436 144.233 73.2054 141.634 70.3519 138.65C68.9819 137.25 68.9719 135.38 68.5719 133.65C68.4917 132.926 68.4917 132.195 68.5719 131.47C69.3019 130.08 70.7819 129.96 72.2119 129.39C72.7019 130.24 73.2119 131.11 73.7519 132.1L74.3319 131.67C74.5119 131.86 74.842 132.04 74.932 132.3C75.2426 133.021 75.696 133.672 76.2648 134.214C76.8337 134.755 77.5063 135.176 78.242 135.45C81.102 136.88 83.9919 138.26 87.0619 139.75C87.7579 138.794 88.5939 137.948 89.5419 137.24C90.5419 136.7 90.5419 135.16 92.0519 135.31L91.4719 134.59L93.0519 133.49L93.872 131.67L95.3919 131.59L94.7719 130.79C95.9319 130.62 96.0019 129.43 96.7719 128.79C97.5123 128.001 98.1816 127.147 98.7719 126.24L99.4219 126.72L99.8619 125.72L100.572 126.29C101.003 124.478 101.899 122.81 103.172 121.45C104.362 120.03 105.432 118.45 107.372 117.45L108.312 118.23C107.542 119.7 106.802 121.17 105.222 121.94V124.12C105.602 124.03 105.972 124.04 106.052 123.9C106.302 123.402 106.526 122.892 106.722 122.37L110.412 119.37C110.482 120.37 110.532 121.05 110.582 121.69L109.582 122.12C109.662 122.24 109.772 122.46 109.822 122.45C110.482 122.32 111.142 122.14 111.942 121.94L112.732 123.33L112.212 123.91C112.322 124.7 113.272 125.39 112.542 126.3L111.942 125.76C111.852 125.93 111.672 126.1 111.712 126.22C111.853 126.566 112.02 126.9 112.212 127.22C112.062 128.61 110.952 129.53 109.922 130.47C108.892 131.41 107.922 132.13 106.632 133.13L108.102 133.97L107.392 135.32L107.952 135.94L106.142 136.23L106.702 137.64H104.882L103.972 139.51L104.672 140.27L102.892 140.6L103.422 141.98L101.802 142.22L102.402 143.85L100.552 143.13L99.6719 144.82C99.7719 145.02 99.812 145.24 99.932 145.3C100.052 145.36 100.442 145.4 100.662 145.52C101.492 145.98 101.662 147.07 102.512 147.52C103.27 148.084 103.895 148.808 104.342 149.64C104.886 150.219 105.183 150.986 105.172 151.78C105.172 152.08 105.422 152.39 105.582 152.78L104.952 153.85C104.212 153.93 103.682 154.92 102.332 154.4C99.9791 153.428 97.513 152.756 94.992 152.4C94.852 152.4 94.7319 152.15 94.5019 151.92L92.0819 154.65L91.9619 155.65L90.1619 155.93L91.6319 157.99L90.0119 157.52L89.4219 158.21C89.7419 159.09 89.4819 159.62 88.4219 160.21C88.1119 161.31 87.8219 162.37 87.5719 163.21L86.5219 163.6L87.122 164.2C86.2615 164.741 85.4604 165.371 84.7319 166.08C84.2151 166.899 83.7956 167.775 83.4819 168.69L83.992 169.45L82.2319 171.26L82.9019 172.1L81.6619 173.51V175.09L79.7119 176.78Z" fill="#051C4C"/>
<path d="M146.782 187.63C148.042 189.15 148.042 189.15 149.572 188.31C149.58 188.747 149.624 189.181 149.702 189.61C149.817 189.882 149.972 190.134 150.162 190.36L149.682 190.85L151.022 191.48C150.402 192.36 149.812 193.19 149.232 194.03C149.982 195.38 148.392 195.62 148.162 196.34C147.812 197.47 146.452 197.71 146.412 198.9C146.362 200.3 144.932 200.47 144.312 201.28C143.692 202.09 142.812 202.45 142.682 203.35L143.352 204.49L141.132 205.75L139.432 206.55L137.712 208.55V209.08L132.452 212.94L133.862 213.66L131.542 216.91L137.632 219L137.032 220.2L139.752 221.2V222.39C140.362 222.95 140.892 223.39 141.452 223.94C141.452 224.59 141.512 225.2 141.542 225.78L142.542 226.78L140.032 228.87C139.92 229.006 139.781 229.118 139.624 229.197C139.467 229.276 139.295 229.322 139.119 229.332C138.943 229.341 138.767 229.314 138.602 229.252C138.437 229.189 138.287 229.094 138.162 228.97C137.947 228.832 137.697 228.759 137.442 228.76C134.622 228.82 132.072 227.76 129.512 226.82C127.622 226.12 125.802 225.24 123.842 224.4C123.312 224.93 122.482 225.33 122.372 226.4L118.992 227.21L117.532 225.73L118.142 225.06L117.412 223.54L115.092 223.9L113.952 221.65L113.602 222L111.602 219.92C111.862 218.03 110.602 215.85 110.972 213.51C110.968 213.213 110.904 212.92 110.784 212.648C110.664 212.377 110.489 212.133 110.272 211.93C108.662 210.42 108.592 208.24 107.832 206.38C107.486 205.598 107.277 204.763 107.212 203.91C107.077 202.554 107.077 201.187 107.212 199.83C107.582 197.74 107.982 195.51 110.412 194.69C111.316 194.466 112.235 194.305 113.162 194.21V198.46L115.632 196.88C115.752 197.25 115.912 197.7 116.062 198.15L116.472 197.84V200.35L117.602 199.77C118.762 200.77 118.732 202.08 118.602 203.41L119.802 203.84C119.592 204.43 119.372 205.01 119.112 205.71C119.432 205.65 119.592 205.71 119.672 205.6C119.752 205.49 120.032 205.13 120.262 205.04C122.592 204.15 123.762 201.68 126.102 200.82C126.572 199.13 128.362 198.76 129.402 197.62C130.624 196.529 131.939 195.545 133.332 194.68C134.592 193.68 135.332 192.1 136.962 191.6C138.034 189.67 139.624 188.077 141.552 187C141.492 185.67 143.332 185.5 143.282 184.09H145.742L146.432 184.78C145.262 185.36 144.832 186.5 144.072 187.7C145.702 188.04 146.642 186.06 148.182 186.97L146.782 187.63Z" fill="#051C4C"/>
<path d="M140.452 158.82C140.322 157.55 142.122 157.41 141.272 156.22L140.672 156.75C140.602 156.69 140.492 156.63 140.482 156.56C140.329 155.923 140.324 155.259 140.468 154.619C140.612 153.979 140.9 153.381 141.312 152.87C142.312 151.67 143.382 150.47 144.382 149.23C144.699 148.782 144.977 148.307 145.212 147.81C144.712 146.52 144.042 145.19 143.452 143.81C142.862 142.43 142.832 140.81 142.142 139.44C141.782 138.69 142.732 137.38 142.512 136.44C142.292 135.5 141.652 134.54 142.512 133.58C142.512 130.88 144.362 129.19 145.972 127.31H150.512L151.512 128.22C150.812 129.1 150.122 129.98 149.362 130.96C149.442 131.14 149.652 131.57 149.922 132.16C150.182 132.16 150.672 132.3 150.842 132.16C151.602 131.42 152.482 131.72 153.282 131.63L154.092 133.4L152.622 135.24L155.102 135.55V138.17C156.942 138.23 157.102 136 158.692 136C159.465 135.004 160.359 134.107 161.352 133.33C162.412 132.33 163.432 131.33 164.432 130.25C165.432 129.17 166.302 128.32 167.132 127.25C167.962 126.18 168.722 125 169.222 124.25L171.772 123.34C172.106 123.685 172.374 124.089 172.562 124.53C172.642 124.87 172.372 125.33 172.182 125.7C171.874 126.164 171.701 126.704 171.682 127.26L174.152 126.26L175.882 129.62C175.852 129.953 175.852 130.288 175.882 130.62C175.973 131.069 176.097 131.51 176.252 131.94C176.142 132.13 175.952 132.48 175.762 132.8L176.382 133.47C174.802 136 173.382 138.62 171.652 141.07C170.192 143.13 170.402 143.27 169.332 143.85L169.812 144.38L163.342 151.64V152.54L168.422 155.78L167.792 157.03C168.442 157.59 168.882 158.67 170.142 158.27C170.422 158.82 170.652 159.27 170.872 159.72L170.242 160.59L172.242 162.59C171.992 163.25 171.772 163.8 171.532 164.42L172.112 165.42C172.022 165.63 171.992 165.84 171.872 165.92C171.602 166.1 171.212 166.13 171.012 166.35C169.842 167.68 169.632 167.75 168.152 167.25C166.198 166.739 164.288 166.07 162.442 165.25C160.081 163.815 157.794 162.26 155.592 160.59C154.424 161.495 153.337 162.498 152.342 163.59C151.139 164.843 149.618 165.745 147.942 166.2C148.282 165.63 148.422 165.4 148.732 164.9L145.472 165.51L145.292 165.15C145.912 164.68 146.522 164.15 147.132 163.72L146.192 162.77H144.322C144.082 162.15 143.802 161.45 143.472 160.63H141.212L140.452 158.82Z" fill="#051C4C"/>
<path d="M152.282 105.31L149.362 106.01C148.162 105.13 146.732 104.01 145.262 103.01C143.502 101.77 141.972 100.21 139.962 99.3401C139.502 99.1401 138.962 98.9901 138.362 98.7601C137.582 97.5901 137.492 95.4101 135.192 95.6501C134.192 94.6501 134.032 93.0501 132.512 92.8901C132.138 92.0182 131.643 91.2034 131.042 90.4701C128.062 87.6044 125.683 84.1745 124.042 80.3801C123.882 79.1401 123.882 77.4901 123.612 75.8401C123.192 73.2301 124.612 70.9902 126.842 69.5502C127.462 69.1502 127.782 68.2801 128.842 68.3701C129.677 68.3057 130.499 68.1204 131.282 67.8201L132.412 68.8201C131.642 70.1101 130.192 70.9302 130.082 72.6602C131.792 73.2302 132.562 71.3301 134.282 71.1101L135.212 71.9501L133.432 74.6101C134.612 74.2401 135.432 74.2401 135.762 73.8301C136.542 72.8301 137.762 72.3901 138.532 71.2401C139.341 70.1725 140.362 69.2839 141.532 68.6301C143.152 67.6301 144.462 66.0701 145.982 64.8501C148.128 62.942 150.403 61.1845 152.792 59.5901C153.737 58.8817 154.584 58.0512 155.312 57.1201C156.062 56.3401 157.232 56.0001 157.472 54.8501H161.132V57.2101L160.262 58.0901C160.742 58.0001 161.262 57.9301 161.702 57.8301C162.142 57.7301 162.702 57.5701 163.402 57.3701C163.292 59.1301 163.402 60.6901 164.642 61.8201L163.912 62.8201L165.592 63.7401L164.032 64.1602C164.212 64.4761 164.357 64.8116 164.462 65.1602C164.502 65.519 164.502 65.8812 164.462 66.2401L161.332 70.5402L160.062 70.6802L160.532 71.3201C160.362 71.7101 160.182 72.1401 159.982 72.6301C157.582 72.5101 157.562 74.9802 156.082 75.9402L156.622 76.6602L153.622 79.6602C153.702 79.7302 153.622 79.6602 153.622 79.6602L152.252 81.0302L151.802 80.6902V82.1201L150.882 81.3701C150.972 81.9801 151.032 82.3701 151.122 82.9601L148.732 86.0502L147.822 85.3801L144.822 88.9001L146.092 89.5302C145.602 90.1502 145.182 90.6802 144.792 91.1902C144.812 91.3783 144.866 91.5611 144.952 91.7301C146.612 93.5901 148.582 95.2501 149.882 97.3401C151.312 99.6901 153.132 102.11 152.282 105.31Z" fill="#051C4C"/>
<path d="M190.121 65.8804L190.551 65.4503C190.46 65.317 190.36 65.19 190.251 65.0703C189.541 64.4303 188.651 63.8804 188.081 63.2404C187.511 62.6004 186.891 62.1503 186.321 61.5903C185.482 60.8638 184.909 59.8788 184.691 58.7904C184.53 57.0247 184.607 55.2453 184.921 53.5004C185.645 50.5513 187.22 47.8802 189.451 45.8203L197.871 37.4104C196.761 36.4104 196.711 34.6803 194.971 34.3303C194.238 32.897 193.505 31.4738 192.771 30.0604C192.254 28.7492 192.069 27.3305 192.231 25.9304V22.9304L194.971 19.4304H199.511L197.511 22.7804C199.191 24.0004 199.811 21.3604 201.281 22.1604C202.211 23.4304 200.491 24.0204 199.951 25.2404L202.351 24.6604C202.555 25.2646 202.619 25.9071 202.537 26.5396C202.456 27.172 202.232 27.7776 201.881 28.3104L202.981 28.7404C203.301 29.0804 202.641 29.1304 202.531 29.6204L204.161 32.1204C208.661 27.4004 214.401 24.2303 217.911 18.8403H220.641L220.001 21.6003L222.141 20.8403V22.9603L223.081 23.2003C223.16 23.3469 223.224 23.5011 223.271 23.6604C223.271 23.9304 223.271 24.2203 223.271 24.4803C223.821 27.3103 222.411 29.5604 220.931 31.6804C219.331 33.9804 217.471 36.0903 215.601 38.4503C216.941 40.0603 219.081 40.8503 220.961 42.3503L221.121 43.5004C221.621 44.1204 222.431 44.7204 222.661 45.5004C223.161 47.2004 224.401 48.7903 223.561 50.9803C223.361 51.0803 222.901 51.3004 222.441 51.5004L220.971 52.0703C220.251 51.3303 218.621 51.5704 218.841 50.1404L214.291 48.8203L213.291 47.1704H210.291C210.221 46.8404 210.161 46.6004 210.091 46.2904C208.971 45.4304 208.091 46.4404 207.391 46.6204L205.061 49.3104L204.371 48.7904L203.281 50.3303L203.561 50.7003C202.301 51.0103 202.191 52.2803 201.631 53.3303L200.471 52.6104C200.401 53.0804 200.321 53.5403 200.231 54.0803L199.361 54.3203C199.251 55.4303 199.091 56.7704 197.451 56.4004C196.901 57.1204 195.981 57.7803 196.041 58.3303C196.231 59.9903 194.841 60.7803 194.461 62.0803C194.281 63.7203 194.311 63.7204 194.821 64.8104C193.626 65.765 192.237 66.4476 190.751 66.8104L190.121 65.8804Z" fill="#051C4C"/>
<path d="M30.6319 35.07L29.0319 35.2701L29.8019 36.1301C29.1319 37.3901 27.8019 38.1301 26.9719 39.2501L27.4019 39.6701L25.4019 41.22C25.0819 42.08 25.7719 43.05 24.6319 43.58C25.6319 44.26 26.5719 44.8701 27.4819 45.5001C30.3519 47.5001 33.4119 49.18 35.7719 51.84C37.1219 53.37 38.3919 54.8401 38.4219 57.0301C38.4219 57.4001 38.8019 57.7601 39.1019 58.3001L36.5419 59.9201C31.0919 56.7301 25.4719 53.92 20.3119 49.73C19.9419 49.94 19.1319 50.1101 18.9819 50.5301C18.3252 52.0706 17.3226 53.4393 16.0519 54.5301C15.9119 54.6801 15.9619 55.0201 15.9219 55.2701L14.3319 55.45C14.4619 55.88 14.5719 56.2401 14.7519 56.8801C13.6208 57.8852 12.8368 59.2222 12.5119 60.7C12.2719 61.64 11.3619 62.4101 10.5119 63.5501V69.48L9.08189 69.57L8.73192 70.57H6.85191L5.85191 67.83L4.19188 68.57L3.86192 67.57C3.70192 67.51 3.5319 67.3601 3.4019 67.3901C2.94484 67.457 2.47916 67.3534 2.09367 67.0988C1.70819 66.8443 1.42986 66.4567 1.31187 66.0101C0.731875 63.4801 -0.908089 61.0101 0.661911 58.2701C0.661911 55.5801 2.36187 53.5301 3.31187 51.1901C3.62187 50.4301 4.9519 50.5601 4.5919 49.2501C4.4419 48.7001 5.42191 47.8501 5.91191 47.1401C6.32421 46.4872 6.77499 45.8594 7.26189 45.2601C7.86189 44.5701 8.58192 44.0001 9.17192 43.2601C9.76192 42.5201 10.0319 42.0201 10.5119 41.3101C7.20189 38.8201 5.17191 35.3101 2.85191 31.9901C2.10191 28.8001 0.851884 25.7001 1.32188 21.9901L4.12193 18.7701C5.29193 19.0101 6.60192 18.2801 7.67192 19.5001L5.57188 22.32L6.12193 22.9101C7.60193 23.2101 8.12188 21.0601 9.69188 21.5601L10.3919 22.9101L8.80193 23.9101L9.66191 24.7801C10.4319 23.9801 11.1819 23.9701 12.0919 25.0601C12.0119 25.6701 12.4819 26.5501 11.5719 27.2601L12.8419 27.8701L11.6319 29.5101L12.9719 29.98L11.5719 30.3601C11.6319 30.8001 11.5219 31.3601 11.7719 31.7501C12.8219 33.1501 13.9719 34.48 15.2019 35.98C15.8819 35.37 16.4119 34.9101 16.9119 34.4401C19.9119 31.6601 22.3919 28.32 26.0919 26.35C26.0919 25.35 27.1519 25.35 27.6119 24.85C28.0719 24.35 28.7119 23.6601 29.0919 23.2601H30.9219C30.0919 24.4801 28.6719 25.1701 29.1319 26.9301L32.8919 24.7C32.7619 25.5 32.6719 26.12 32.5619 26.83L34.5619 27.83L33.9919 29.0201L34.7819 29.1801C34.7819 29.2901 34.9119 29.4701 34.8619 29.5301C34.0975 30.3461 33.4266 31.2449 32.8619 32.21C32.4819 33.47 31.3119 34.03 30.6319 35.07Z" fill="#051C4C"/>
<path d="M80.4116 62.9102C82.5816 60.2402 84.4116 58.0202 86.2216 55.7802C87.8919 53.6422 89.3899 51.3751 90.7015 49.0001L90.0815 48.2401L91.4916 46.6401H93.2816C93.9516 47.3201 94.5016 48.2801 95.2816 48.5201C96.2116 48.8201 96.3516 49.5201 96.7316 50.1301C98.0416 52.0701 98.9515 54.0401 97.9415 56.5801C97.3215 58.1301 96.6916 59.6901 96.0516 61.2401C95.8516 61.7101 95.7116 62.2402 95.4716 62.9102C95.1516 63.2302 94.6316 63.7402 94.0916 64.2902V66.0001L91.0916 71.3601C92.4516 72.2901 93.7016 73.1701 94.9916 74.0101C97.5645 75.539 99.625 77.7979 100.912 80.5001C101.177 81.2277 101.404 81.9687 101.592 82.7201L100.992 84.0402L99.3516 84.8102C98.0716 84.3602 96.9316 84.0301 95.8516 83.5801C94.7716 83.1301 93.7316 82.5802 92.6716 82.0402C92.4916 80.4702 90.6715 81.1002 89.9515 80.0402C89.3415 79.1602 87.9516 78.7901 86.8016 78.1001C83.2871 81.7392 80.092 85.6737 77.2515 89.8601C77.0315 90.1801 77.1016 90.7001 77.0316 91.1301C76.5038 91.5643 75.8388 91.7966 75.1555 91.7856C74.4722 91.7747 73.8151 91.521 73.3016 91.0701V90.2001L68.5215 87.3401C67.7315 86.4101 68.1316 84.9501 67.6116 83.8201C67.0916 82.6901 67.5315 81.3502 67.3115 80.4302C68.9635 76.4943 71.3378 72.9023 74.3115 69.8401V67.9901C72.6374 66.6272 71.2737 64.9226 70.3115 62.9901C70.0022 62.2911 69.7999 61.5495 69.7115 60.7902C69.2385 59.3057 68.9595 57.7662 68.8815 56.2101C68.9027 54.7846 69.3747 53.4025 70.2298 52.2617C71.0849 51.121 72.2792 50.2803 73.6415 49.8601C75.4915 49.1601 77.2915 49.5101 79.2715 49.3201C78.2015 51.5301 75.6416 51.3202 74.1516 53.1902C76.7316 53.0802 78.3016 50.6501 80.9316 51.1101C80.8316 51.7301 80.7316 52.3501 80.6216 53.0101L82.5015 53.6702V57.1301C81.7915 58.3601 81.0215 59.5801 80.3915 60.8701C80.2415 61.2501 80.4116 61.8502 80.4116 62.9102Z" fill="#051C4C"/>
<path d="M126.502 28.96L123.502 32.7V36.2L120.562 37.38C119.457 36.1648 118.712 34.6653 118.412 33.05L116.702 33.6801C116.103 32.9591 115.574 32.1821 115.122 31.36C114.042 28.87 114.122 26.21 114.242 23.7C114.702 22.7 115.102 21.7 115.602 20.6C114.852 20.48 114.182 20.6001 113.912 20.3101C112.142 18.5301 110.402 16.72 108.792 14.8C107.849 13.8115 107.124 12.6361 106.662 11.35C106.263 9.41497 106.009 7.45285 105.902 5.47998C106.624 4.22833 107.482 3.06112 108.462 2C109.66 1.18675 110.949 0.515574 112.302 0L113.302 1.10999L110.432 3.87L111.102 4.54004C112.322 3.65004 113.542 2.48 115.522 3.25L113.972 5.37L116.092 4.54004C116.432 5.04004 116.782 5.53998 117.212 6.22998L115.212 8.29004L116.332 8.52002C115.712 9.52002 116.062 11 114.472 11.52C115.944 13.1846 117.672 14.6025 119.592 15.72L137.442 0.910034H140.082L138.882 3.31995C139.672 3.91995 140.292 3.25006 140.992 2.94006C141.908 3.80438 142.582 4.89314 142.947 6.09827C143.311 7.3034 143.355 8.58299 143.072 9.81006L140.492 13.13L141.042 13.64L139.622 13.8199L140.172 14.41H139.172C137.302 17.93 134.172 20.32 131.832 23.52C135.002 25.29 138.552 26.6 141.902 28.6C142.002 29.11 142.122 29.68 142.252 30.35L143.252 29.28C144.602 29.46 144.582 31.01 145.712 31.58C146.842 32.15 147.282 33.4 148.052 34.37V37.63L147.172 38.51C144.372 38.21 142.042 36.6001 139.492 35.3101L139.162 35.6C137.372 35.16 136.312 33.24 134.242 33.53C133.242 32.29 131.702 32.2 130.462 31.47C129.222 30.74 128.002 29.9 126.502 28.96Z" fill="#051C4C"/>
<path d="M205.922 72.53L207.572 73.46C207.422 74.35 207.282 75.25 207.092 76.35C207.552 77.14 207.932 78.35 209.322 78.84C209.942 77.97 210.322 76.98 211.522 76.5C212.352 76.16 212.852 74.96 213.522 74.15C214.36 73.3599 215.114 72.4853 215.772 71.54C216.242 70.62 217.242 69.99 217.882 69.13C218.522 68.27 219.032 67.24 219.592 66.29H222.672C222.832 67.15 223.092 68 222.082 68.89L224.252 68.99L225.032 72.54L223.902 72.98C223.915 73.227 223.956 73.4718 224.022 73.71C224.782 75.59 224.662 76.23 223.202 77.71C222.914 77.9744 222.704 78.3128 222.595 78.6884C222.485 79.0639 222.481 79.4622 222.582 79.84C222.972 80.76 221.802 80.41 222.352 81.26L221.272 80.36V81.88L219.602 82.2V83.63L218.002 85.3L220.562 87.8V89.86L222.392 91.6901L221.852 92.6901L222.942 94.9L221.282 98.36H219.012L211.232 93.91L210.112 95.64L208.652 94.9301V97.47L206.152 96.54L206.962 97.64L205.092 99.39C204.932 98.39 204.822 97.74 204.712 97.04L205.792 96.67L205.942 95.91L204.942 95.5699C205.052 95.0899 205.172 94.57 205.382 93.78L204.562 94.53L201.142 93.89L200.462 92.58C200.672 91.78 200.902 90.87 201.142 89.95L203.022 90.26L203.112 89.96L201.112 88.96C201.482 88.21 201.842 87.45 202.222 86.67C200.422 83.67 198.472 80.7501 197.372 77.4401C196.702 75.1601 197.492 72.91 197.812 70.66C198.072 68.92 199.512 67.66 201.092 66.8C201.322 66.68 201.532 66.5301 201.892 66.3101H204.602L205.692 67.39L204.292 68.79V70.47L206.122 69.99L207.232 70.99L205.922 72.53Z" fill="#051C4C"/>
<path d="M41.9117 100.54L42.8317 101.47L37.8317 105.74L37.9417 106.03C38.2914 105.978 38.6296 105.866 38.9417 105.7C39.4216 105.3 39.8017 104.77 40.4617 104.64L43.9217 102.64C44.9217 103.44 44.1917 104.07 43.7717 105.04L45.2817 104.46L45.9917 105.17C45.9917 106.26 45.9917 107.35 45.9917 108.46L44.9917 109.46C44.9917 109.58 45.0517 109.76 45.1517 109.83C45.7717 110.29 46.3917 110.76 47.0417 111.18C47.6917 111.6 48.7316 111.75 48.7516 112.89C48.7516 113.02 48.9817 113.16 49.1317 113.27C49.7272 113.605 50.2868 114.001 50.8017 114.45C51.2602 115.076 51.6554 115.746 51.9817 116.45V118.36C51.5217 118.81 51.0717 119.26 50.7017 119.64L40.4617 115.98L38.0817 117.25L37.9817 117.08L35.6617 119.4C35.6617 119.61 35.6617 120.04 35.5917 120.57L31.4517 124.57C30.8417 126.45 31.1517 128.39 28.6417 128.78C28.1217 127.95 26.2617 127.78 26.6417 125.88L24.8017 125.35L24.1517 125.79L21.9417 123.45C21.7417 121.75 21.4917 119.58 21.2217 117.29L28.0817 109.86C27.1517 109.341 26.2534 108.766 25.3917 108.14C24.5658 107.411 23.7781 106.64 23.0317 105.83C23.2517 105.12 23.4717 104.4 23.7217 103.62L22.5616 103.22V101.38L23.1317 100.81L25.7417 100.29L34.2516 105.06C37.2316 103.92 39.0917 101.4 41.9117 100.54Z" fill="#051C4C"/>
</svg>
