<svg width="738" height="682" viewBox="0 0 738 682" fill="none" xmlns="http://www.w3.org/2000/svg">
	<mask id="mask0" mask-type="alpha" maskUnits="userSpaceOnUse" x="0" y="0" width="738" height="682">
		<rect width="738" height="682" fill="#C4C4C4" />
	</mask>
	<g mask="url(#mask0)">
		<g filter="url(#filter0_b)">
			<circle cx="358" cy="349" r="200" fill="white" fill-opacity="0.2" />
			<circle cx="358" cy="349" r="199.5" stroke="#FAAA31" />
		</g>
		<g filter="url(#filter1_f)">
			<circle cx="358" cy="349" r="225" fill="#EE8437" fill-opacity="0.5" />
		</g>
		<path d="M283.059 428.388C285.544 432.044 288.088 435.084 286.167 436.869C284.736 438.199 282.753 437.726 279.778 434.525C277.049 431.587 276.932 428.818 278.476 427.383L273.367 421.885C269.224 425.734 268.185 431.262 275.114 438.719C281.413 445.498 286.959 446.029 291.591 441.724C296.223 437.42 294.729 433.546 291.299 427.89C287.632 421.754 285.314 419.486 287.197 417.736C288.741 416.302 290.961 417.256 293.691 420.194C296.141 422.83 297.837 426.166 295.314 428.511L300.598 434.198C305.569 429.578 305.602 423.723 298.673 416.266C292.199 409.299 286.37 407.557 280.872 412.666C275.11 418.02 279.406 422.87 283.059 428.388Z" fill="#051C4C" />
		<path d="M265.441 400.933L263.084 395.679L258.487 397.742L260.844 402.995L255.169 405.541L257.883 411.592L263.559 409.046L265.032 412.329L269.629 410.267L268.155 406.983L276.739 403.132C282.18 400.691 285.073 398.097 282.106 391.484C281.475 390.076 280.96 389.18 280.157 388.019L274.622 390.502C277.021 394.216 276.979 395.756 274.024 397.082L265.441 400.933Z" fill="#051C4C" />
		<path d="M252.47 384.711C252.037 382.753 250.521 381.614 248.363 382.092C246.254 382.559 245.311 384.242 245.744 386.2C246.178 388.157 247.732 389.235 249.841 388.768C251.999 388.29 252.904 386.668 252.47 384.711ZM278.68 382.278L277.258 375.853L254.068 380.987L255.49 387.412L278.68 382.278Z" fill="#051C4C" />
		<path d="M251.784 354.759C251.656 357.687 253.039 360.166 255.328 361.964L252.144 361.825L251.856 368.399L283.032 369.762L283.319 363.188L272.688 362.723C275.124 361.132 276.719 358.783 276.847 355.855C277.097 350.154 272.833 345.285 264.769 344.933C256.706 344.58 252.033 349.058 251.784 354.759ZM271.276 357.361C271.1 361.367 267.831 363.18 263.979 363.011C260.075 362.841 257.028 360.752 257.203 356.746C257.378 352.74 260.59 351.079 264.493 351.25C268.345 351.418 271.451 353.355 271.276 357.361Z" fill="#051C4C" />
		<path d="M270.728 331.37L277.256 315.656C268.025 311.209 261.908 315.348 259.719 320.617C257.549 325.84 258.478 332.85 266.786 336.302C275.047 339.733 280.717 335.464 282.887 330.242C284.78 325.684 284.45 320.314 279.037 316.729L276.788 322.142C278.229 323.631 278.892 325.521 277.787 328.179C276.505 331.265 273.726 332.059 270.728 331.37ZM264.779 322.775C265.923 320.022 268.101 319.201 270.616 319.578L266.553 329.358C264.551 327.746 263.655 325.481 264.779 322.775Z" fill="#051C4C" />
		<path d="M285.606 304.202L296.982 291.547C289.752 284.287 282.607 286.16 278.792 290.404C275.012 294.609 273.56 301.53 280.251 307.545C286.903 313.525 293.669 311.381 297.45 307.176C300.749 303.505 302.221 298.331 298.305 293.151L294.387 297.51C295.252 299.393 295.249 301.395 293.324 303.536C291.09 306.021 288.205 305.847 285.606 304.202ZM282.849 294.119C284.842 291.902 287.169 291.851 289.417 293.042L282.337 300.918C280.983 298.733 280.89 296.298 282.849 294.119Z" fill="#051C4C" />
		<path d="M344.386 273.827L328.091 278.731L326.209 272.479L341.175 267.975L339.338 261.87L324.372 266.374L322.742 260.959L338.742 256.144L336.919 250.089L313.93 257.008L322.923 286.89L346.208 279.882L344.386 273.827Z" fill="#051C4C" />
		<path d="M367.308 255.662C363.204 255.394 360.67 257.907 359.81 259.241L360.031 255.856L353.465 255.426L351.913 279.126L358.479 279.556L359.39 265.654C359.561 263.038 361.231 261.138 364.155 261.329C367.131 261.524 368.333 263.612 368.162 266.228L367.252 280.131L373.869 280.564L374.897 264.866C375.247 259.531 372.336 255.992 367.308 255.662Z" fill="#051C4C" />
		<path d="M394.661 268.021L400.047 270.058L401.829 265.346L396.444 263.309L398.644 257.491L392.441 255.145L390.241 260.963L386.875 259.69L385.092 264.402L388.458 265.675L385.13 274.475C383.021 280.053 382.817 283.933 389.597 286.497C391.04 287.043 392.038 287.311 393.427 287.561L395.573 281.887C391.249 280.966 390.188 279.85 391.333 276.821L394.661 268.021Z" fill="#051C4C" />
		<path d="M408.963 285.018L422.469 295.369C429.141 287.593 426.715 280.617 422.186 277.145C417.697 273.705 410.684 272.799 405.211 279.94C399.77 287.04 402.436 293.618 406.925 297.058C410.842 300.06 416.116 301.122 420.973 296.813L416.322 293.248C414.512 294.258 412.515 294.412 410.23 292.66C407.578 290.628 407.526 287.738 408.963 285.018ZM418.799 281.48C421.166 283.294 421.398 285.61 420.387 287.944L411.981 281.502C414.054 279.981 416.473 279.698 418.799 281.48Z" fill="#051C4C" />
		<path d="M446.923 303.776C444.488 300.398 441.403 301.481 439.618 301.817L442.954 299.412L439.106 294.074L419.838 307.962L423.686 313.3L432.569 306.897C435.572 304.733 438.225 303.138 440.69 306.558C441.682 307.934 442.106 309.402 442.224 310.268L442.464 310.602L448.303 306.393C448.151 305.743 447.674 304.818 446.923 303.776Z" fill="#051C4C" />
		<path d="M458.921 329.719C457.997 326.938 455.821 325.115 453.042 324.25L456.067 323.246L453.993 317.001L424.378 326.836L426.452 333.081L436.551 329.727C434.842 332.082 434.188 334.845 435.112 337.626C436.91 343.042 442.63 346.072 450.289 343.528C457.949 340.984 460.719 335.135 458.921 329.719ZM439.781 334.234C438.517 330.428 440.927 327.57 444.586 326.354C448.294 325.123 451.886 325.989 453.15 329.794C454.413 333.6 452.004 336.296 448.296 337.527C444.637 338.742 441.045 338.039 439.781 334.234Z" fill="#051C4C" />
		<path d="M463.797 365.053C463.727 360.889 460.576 360.016 458.918 359.273L463.03 359.204L462.92 352.624L439.172 353.023L439.282 359.602L450.231 359.419C453.932 359.357 457.02 359.562 457.091 363.777C457.119 365.473 456.63 366.921 456.231 367.699L456.238 368.11L463.434 367.989C463.681 367.368 463.818 366.338 463.797 365.053Z" fill="#051C4C" />
		<path d="M463.554 381.261C463.181 383.231 464.126 384.875 466.298 385.286C468.419 385.688 469.95 384.513 470.323 382.543C470.696 380.573 469.691 378.97 467.57 378.568C465.398 378.157 463.927 379.291 463.554 381.261ZM438.506 373.171L437.282 379.636L460.619 384.054L461.843 377.589L438.506 373.171Z" fill="#051C4C" />
		<path d="M444.17 403.627C446.061 400.825 447.637 398.328 449.171 399.052C450.519 399.689 450.761 401.224 449.51 403.874C448.26 406.524 446.3 407.304 444.858 406.624L441.984 412.714C445.982 414.602 450.436 413.236 453.859 405.983C456.931 399.474 455.77 394.947 451.353 392.863C446.937 390.778 444.444 393.41 441.479 397.525C438.913 401.033 437.463 403.986 435.51 403.065C433.976 402.341 434.032 400.775 435.305 398.079C436.512 395.522 438.172 393.691 440.59 394.832L443.598 388.577C438.624 386.229 434.375 388.487 431.017 395.601C427.858 402.295 428.156 407.325 433.363 409.782C438.849 412.372 441.322 407.854 444.17 403.627Z" fill="#051C4C" />
		<path d="M426.7 422.04L414.693 434.097C421.543 441.717 428.773 440.211 432.8 436.168C436.791 432.161 438.594 425.323 432.219 418.975C425.881 412.663 419.014 414.458 415.024 418.465C411.541 421.962 409.807 427.055 413.453 432.428L417.589 428.275C416.821 426.35 416.926 424.35 418.958 422.31C421.316 419.943 424.188 420.264 426.7 422.04ZM428.939 432.25C426.835 434.363 424.508 434.295 422.324 432.991L429.797 425.487C431.038 427.738 431.006 430.174 428.939 432.25Z" fill="#051C4C" />
	</g>
	<defs>
		<filter id="filter0_b" x="148" y="139" width="420" height="420" filterUnits="userSpaceOnUse" color-interpolation-filters="sRGB">
			<feFlood flood-opacity="0" result="BackgroundImageFix" />
			<feGaussianBlur in="BackgroundImage" stdDeviation="5" />
			<feComposite in2="SourceAlpha" operator="in" result="effect1_backgroundBlur" />
			<feBlend mode="normal" in="SourceGraphic" in2="effect1_backgroundBlur" result="shape" />
		</filter>
		<filter id="filter1_f" x="-117" y="-126" width="950" height="950" filterUnits="userSpaceOnUse" color-interpolation-filters="sRGB">
			<feFlood flood-opacity="0" result="BackgroundImageFix" />
			<feBlend mode="normal" in="SourceGraphic" in2="BackgroundImageFix" result="shape" />
			<feGaussianBlur stdDeviation="125" result="effect1_foregroundBlur" />
		</filter>
	</defs>
</svg>
