<svg width="755" height="950" viewBox="0 0 755 950" fill="none" xmlns="http://www.w3.org/2000/svg">
<g filter="url(#filter0_b)">
<circle cx="280" cy="475" r="200" fill="white" fill-opacity="0.2"/>
<circle cx="280" cy="475" r="199.5" stroke="#FAAA31"/>
</g>
<g filter="url(#filter1_f)">
<circle cx="280" cy="475" r="225" fill="#EE8437" fill-opacity="0.5"/>
</g>
<path d="M205.059 554.388C207.544 558.044 210.088 561.084 208.167 562.869C206.736 564.199 204.753 563.726 201.778 560.525C199.049 557.587 198.932 554.818 200.476 553.383L195.367 547.885C191.224 551.734 190.185 557.262 197.114 564.719C203.413 571.498 208.959 572.029 213.591 567.724C218.223 563.42 216.729 559.546 213.299 553.89C209.632 547.754 207.314 545.486 209.197 543.736C210.741 542.302 212.961 543.256 215.691 546.194C218.141 548.83 219.837 552.166 217.314 554.511L222.598 560.198C227.569 555.578 227.602 549.723 220.673 542.266C214.199 535.299 208.37 533.557 202.872 538.666C197.11 544.02 201.406 548.87 205.059 554.388Z" fill="#051C4C"/>
<path d="M187.441 526.933L185.084 521.679L180.487 523.742L182.844 528.995L177.169 531.541L179.883 537.592L185.559 535.046L187.032 538.329L191.629 536.267L190.155 532.983L198.739 529.132C204.18 526.691 207.073 524.097 204.106 517.484C203.475 516.076 202.96 515.18 202.157 514.019L196.622 516.502C199.021 520.216 198.979 521.756 196.024 523.082L187.441 526.933Z" fill="#051C4C"/>
<path d="M174.47 510.711C174.037 508.753 172.521 507.614 170.363 508.092C168.254 508.559 167.311 510.242 167.744 512.2C168.178 514.157 169.732 515.235 171.841 514.768C173.999 514.29 174.904 512.668 174.47 510.711ZM200.68 508.278L199.258 501.853L176.068 506.987L177.49 513.412L200.68 508.278Z" fill="#051C4C"/>
<path d="M173.784 480.759C173.656 483.687 175.039 486.166 177.328 487.964L174.144 487.825L173.856 494.399L205.032 495.762L205.319 489.188L194.688 488.723C197.124 487.132 198.719 484.783 198.847 481.855C199.097 476.154 194.833 471.285 186.769 470.933C178.706 470.58 174.033 475.058 173.784 480.759ZM193.276 483.361C193.1 487.367 189.831 489.18 185.979 489.011C182.075 488.841 179.028 486.752 179.203 482.746C179.378 478.74 182.59 477.079 186.493 477.25C190.345 477.418 193.451 479.355 193.276 483.361Z" fill="#051C4C"/>
<path d="M192.728 457.37L199.256 441.656C190.025 437.208 183.908 441.347 181.719 446.617C179.549 451.84 180.478 458.85 188.786 462.301C197.047 465.733 202.717 461.464 204.887 456.242C206.78 451.684 206.45 446.314 201.037 442.729L198.788 448.141C200.229 449.631 200.892 451.52 199.787 454.179C198.505 457.265 195.726 458.059 192.728 457.37ZM186.779 448.775C187.923 446.021 190.101 445.201 192.616 445.578L188.553 455.358C186.551 453.746 185.655 451.481 186.779 448.775Z" fill="#051C4C"/>
<path d="M207.606 430.202L218.982 417.547C211.752 410.287 204.607 412.16 200.792 416.403C197.012 420.609 195.56 427.53 202.251 433.545C208.903 439.525 215.669 437.381 219.45 433.175C222.749 429.505 224.221 424.33 220.305 419.151L216.387 423.51C217.252 425.393 217.249 427.395 215.324 429.536C213.09 432.021 210.205 431.847 207.606 430.202ZM204.849 420.119C206.842 417.902 209.169 417.851 211.417 419.042L204.337 426.917C202.983 424.732 202.89 422.298 204.849 420.119Z" fill="#051C4C"/>
<path d="M266.386 399.827L250.091 404.731L248.209 398.479L263.175 393.975L261.338 387.87L246.372 392.374L244.742 386.959L260.742 382.144L258.919 376.089L235.93 383.008L244.923 412.89L268.208 405.882L266.386 399.827Z" fill="#051C4C"/>
<path d="M289.308 381.662C285.204 381.394 282.67 383.907 281.81 385.241L282.031 381.856L275.465 381.426L273.913 405.126L280.479 405.556L281.39 391.654C281.561 389.037 283.231 387.138 286.155 387.329C289.131 387.524 290.333 389.612 290.162 392.228L289.252 406.13L295.869 406.564L296.897 390.866C297.247 385.531 294.336 381.992 289.308 381.662Z" fill="#051C4C"/>
<path d="M316.661 394.021L322.047 396.058L323.829 391.346L318.444 389.309L320.644 383.491L314.441 381.145L312.241 386.963L308.875 385.69L307.092 390.402L310.458 391.675L307.13 400.475C305.021 406.053 304.817 409.933 311.597 412.498C313.04 413.043 314.038 413.311 315.427 413.561L317.573 407.887C313.249 406.967 312.188 405.85 313.333 402.821L316.661 394.021Z" fill="#051C4C"/>
<path d="M330.963 411.018L344.469 421.369C351.141 413.593 348.715 406.617 344.186 403.145C339.697 399.705 332.684 398.799 327.211 405.94C321.77 413.04 324.436 419.618 328.925 423.058C332.842 426.06 338.116 427.122 342.973 422.813L338.322 419.248C336.512 420.258 334.515 420.412 332.23 418.66C329.578 416.628 329.526 413.738 330.963 411.018ZM340.799 407.48C343.166 409.294 343.398 411.61 342.387 413.944L333.981 407.502C336.054 405.981 338.473 405.698 340.799 407.48Z" fill="#051C4C"/>
<path d="M368.923 429.776C366.488 426.398 363.403 427.481 361.618 427.817L364.954 425.412L361.106 420.074L341.838 433.962L345.686 439.3L354.569 432.897C357.572 430.733 360.225 429.138 362.69 432.558C363.682 433.934 364.106 435.402 364.224 436.268L364.464 436.602L370.303 432.393C370.151 431.743 369.674 430.818 368.923 429.776Z" fill="#051C4C"/>
<path d="M380.921 455.719C379.997 452.938 377.821 451.115 375.042 450.25L378.067 449.246L375.993 443.001L346.378 452.836L348.452 459.081L358.551 455.727C356.842 458.082 356.188 460.845 357.112 463.626C358.91 469.042 364.63 472.072 372.289 469.528C379.949 466.984 382.719 461.135 380.921 455.719ZM361.781 460.234C360.517 456.428 362.927 453.57 366.586 452.354C370.294 451.123 373.886 451.989 375.15 455.794C376.413 459.6 374.004 462.296 370.296 463.527C366.637 464.742 363.045 464.039 361.781 460.234Z" fill="#051C4C"/>
<path d="M385.797 491.053C385.727 486.889 382.576 486.016 380.918 485.273L385.03 485.204L384.92 478.624L361.172 479.023L361.282 485.602L372.231 485.419C375.932 485.357 379.02 485.562 379.091 489.777C379.119 491.473 378.63 492.921 378.231 493.699L378.238 494.11L385.434 493.989C385.681 493.368 385.818 492.338 385.797 491.053Z" fill="#051C4C"/>
<path d="M385.554 507.261C385.181 509.231 386.126 510.875 388.298 511.286C390.419 511.688 391.95 510.513 392.323 508.543C392.696 506.573 391.691 504.97 389.57 504.568C387.398 504.157 385.927 505.291 385.554 507.261ZM360.506 499.171L359.282 505.636L382.619 510.054L383.843 503.589L360.506 499.171Z" fill="#051C4C"/>
<path d="M366.17 529.627C368.061 526.825 369.637 524.328 371.171 525.052C372.519 525.689 372.761 527.224 371.51 529.874C370.26 532.524 368.3 533.304 366.858 532.624L363.984 538.715C367.982 540.602 372.436 539.236 375.859 531.983C378.931 525.474 377.77 520.947 373.353 518.863C368.937 516.778 366.444 519.41 363.479 523.525C360.913 527.033 359.463 529.986 357.51 529.065C355.976 528.341 356.032 526.776 357.305 524.079C358.512 521.522 360.172 519.691 362.59 520.832L365.598 514.577C360.624 512.229 356.375 514.487 353.017 521.601C349.858 528.295 350.156 533.325 355.363 535.783C360.849 538.372 363.322 533.854 366.17 529.627Z" fill="#051C4C"/>
<path d="M348.7 548.04L336.693 560.097C343.543 567.717 350.773 566.211 354.8 562.168C358.791 558.161 360.594 551.323 354.219 544.975C347.881 538.663 341.014 540.458 337.024 544.465C333.541 547.962 331.807 553.055 335.453 558.427L339.589 554.275C338.821 552.35 338.926 550.35 340.958 548.31C343.316 545.942 346.188 546.264 348.7 548.04ZM350.939 558.25C348.835 560.363 346.508 560.295 344.324 558.991L351.797 551.487C353.038 553.738 353.006 556.174 350.939 558.25Z" fill="#051C4C"/>
<defs>
<filter id="filter0_b" x="70" y="265" width="420" height="420" filterUnits="userSpaceOnUse" color-interpolation-filters="sRGB">
<feFlood flood-opacity="0" result="BackgroundImageFix"/>
<feGaussianBlur in="BackgroundImage" stdDeviation="5"/>
<feComposite in2="SourceAlpha" operator="in" result="effect1_backgroundBlur"/>
<feBlend mode="normal" in="SourceGraphic" in2="effect1_backgroundBlur" result="shape"/>
</filter>
<filter id="filter1_f" x="-195" y="0" width="950" height="950" filterUnits="userSpaceOnUse" color-interpolation-filters="sRGB">
<feFlood flood-opacity="0" result="BackgroundImageFix"/>
<feBlend mode="normal" in="SourceGraphic" in2="BackgroundImageFix" result="shape"/>
<feGaussianBlur stdDeviation="125" result="effect1_foregroundBlur"/>
</filter>
</defs>
</svg>
