<svg width="591" height="500" viewBox="0 0 591 500" fill="none" xmlns="http://www.w3.org/2000/svg">
<circle cx="250" cy="250" r="250" fill="#FAFAFB"/>
<circle cx="441" cy="250" r="150" fill="#EE8437"/>
<path d="M387.724 272.537C387.524 270.237 389.904 268.917 388.264 266.747C387.584 265.867 389.264 265.497 389.814 264.897C393.136 261.423 396.825 258.319 400.814 255.637C402.484 254.497 404.814 255.067 406.724 255.947C406.86 255.978 406.989 256.038 407.101 256.123C407.213 256.207 407.305 256.314 407.373 256.437C407.441 256.559 407.483 256.695 407.495 256.834C407.507 256.974 407.49 257.114 407.444 257.247C407.124 258.107 406.544 257.357 406.084 257.397C405.745 257.364 405.404 257.413 405.087 257.538C404.771 257.663 404.489 257.861 404.264 258.117C405.714 259.347 406.914 260.787 409.094 260.907C410.644 260.987 410.204 262.737 410.244 263.477C410.364 265.237 411.544 265.777 412.554 266.757C413.564 267.737 413.964 268.947 415.784 268.267C416.273 268.169 416.78 268.247 417.217 268.487C417.654 268.726 417.993 269.112 418.174 269.577C417.254 270.457 416.494 269.577 415.674 269.317C415.194 271.727 416.994 271.507 418.254 271.897C418.904 272.097 419.814 271.967 419.914 272.967C420.014 273.967 418.664 273.437 418.364 274.337C420.364 274.867 421.034 276.027 418.864 277.037C417.394 277.727 418.664 279.417 417.114 279.857C417.016 278.882 416.649 277.954 416.054 277.177C414.734 277.787 416.114 278.757 415.764 279.497C414.374 279.597 414.004 277.607 412.364 278.417C412.784 277.257 415.544 276.107 412.154 276.047C411.044 276.047 410.424 273.917 408.814 275.237C408.394 275.577 408.274 274.617 408.264 274.337C408.267 273.894 408.18 273.454 408.01 273.045C407.84 272.636 407.59 272.265 407.273 271.955C406.957 271.644 406.582 271.4 406.17 271.237C405.758 271.074 405.317 270.996 404.874 271.007C402.974 271.007 400.244 269.907 399.224 273.067C398.974 273.837 398.074 274.437 397.394 275.067C396.394 275.947 395.074 276.357 395.604 278.387C395.631 278.746 395.568 279.107 395.419 279.435C395.271 279.764 395.043 280.05 394.755 280.267C394.467 280.484 394.129 280.625 393.773 280.678C393.416 280.73 393.052 280.692 392.714 280.567C390.774 280.027 389.564 280.757 389.714 282.797C389.784 284.067 389.224 283.407 388.714 283.657C386.584 284.657 383.874 282.497 382.084 285.157C381.204 286.457 380.544 287.077 382.864 287.157C380.084 287.987 377.284 288.757 374.534 289.667C372.774 290.247 371.654 289.437 370.704 288.187C370.244 287.577 370.224 286.887 368.984 287.137C367.744 287.387 366.764 286.137 366.454 285.057C365.894 283.117 364.454 281.857 363.384 280.327C362.074 278.517 360.464 278.627 359.314 280.047C356.474 283.557 352.434 285.847 349.794 289.507C348.704 291.037 345.884 290.707 345.794 293.277C345.104 293.16 344.402 293.126 343.704 293.177C342.204 293.477 340.704 293.897 339.244 294.327C337.784 294.757 336.834 294.727 336.684 292.567C336.344 295.137 335.094 295.157 333.324 294.567C332.684 294.347 331.654 294.567 331.704 293.727C331.704 293.297 332.514 292.187 333.544 292.677C334.344 293.057 335.084 293.227 335.044 292.097C335.004 290.967 333.814 291.497 333.344 291.567C331.667 291.936 329.914 291.734 328.365 290.993C326.816 290.252 325.559 289.014 324.794 287.477C324.41 286.86 323.81 286.408 323.112 286.209C322.413 286.009 321.666 286.076 321.014 286.397C316.574 288.237 311.874 290.327 309.014 294.027C307.174 296.457 304.684 297.837 302.834 300.027C301.214 301.947 298.764 302.967 297.244 305.217C295.924 307.217 289.994 306.937 288.434 304.877C285.644 301.177 281.434 298.547 280.024 293.807C279.634 292.497 278.764 292.807 277.884 293.277C276.314 294.187 274.754 295.117 273.174 296.007C272.364 296.477 271.724 297.267 270.494 296.667C269.264 296.067 268.854 297.427 268.274 298.137C267.954 298.517 268.274 299.627 267.814 299.557C265.124 299.197 265.294 302.077 263.754 302.967C262.754 303.567 262.754 303.567 261.004 303.447C260.494 303.447 259.864 303.937 259.404 304.337C255.961 307.397 251.889 309.663 247.474 310.977C245.474 311.547 244.394 310.977 243.624 309.637C242.074 306.807 239.414 305.067 237.344 302.757C236.624 301.957 236.064 301.757 235.274 302.757C232.736 306.274 229.553 309.278 225.894 311.607C225.114 312.107 225.414 313.697 224.354 313.957C221.954 314.527 219.514 314.957 217.074 315.307C216.444 315.397 216.074 314.897 216.434 314.217C216.794 313.537 216.584 313.027 215.774 312.787C212.774 311.927 212.134 309.487 214.214 306.937C217.214 303.237 220.324 299.577 223.354 295.877C226.384 292.177 229.354 288.487 232.354 284.747C233.305 283.414 234.487 282.263 235.844 281.347C237.424 280.347 239.624 280.017 240.494 281.677C242.064 284.677 245.014 286.787 245.734 290.237C246.184 292.387 247.064 291.707 248.244 290.817C255.574 285.277 263.074 280.037 271.864 276.997L272.374 276.797C282.794 273.457 284.054 275.857 288.114 284.387C290.114 288.537 289.014 289.097 293.454 285.567C297.894 282.037 302.094 277.777 307.004 274.567C311.004 272.007 314.924 269.387 320.064 270.177C323.844 270.757 326.474 273.177 328.864 275.747C332.814 280.007 336.764 279.057 340.864 275.867C345.354 272.397 349.514 268.517 353.864 264.867C358.964 260.667 361.994 261.247 366.034 267.087C366.914 268.347 367.574 269.777 368.554 270.957C370.834 273.737 373.644 274.087 376.784 272.387C379.784 270.787 382.884 269.507 385.634 267.507C386.054 267.207 386.504 266.267 387.164 267.147C387.614 267.747 387.164 268.367 386.894 268.917C386.114 270.527 386.104 270.517 387.724 272.537ZM397.414 269.017C398.364 267.627 398.804 266.797 397.054 265.727C396.134 265.147 394.324 265.017 394.374 263.157C394.374 262.837 393.734 263.057 393.464 263.277C393.194 263.497 392.644 263.387 393.054 263.967C394.384 265.847 393.354 267.117 391.754 268.337C393.064 268.017 394.224 269.687 395.504 268.057C395.854 267.617 395.194 266.287 396.414 266.697C397.294 266.997 397.504 267.877 397.414 269.017ZM277.964 280.287C277.884 280.057 277.814 279.827 277.734 279.587C273.965 279.625 270.333 281.008 267.494 283.487L277.964 280.287ZM380.174 274.387C377.804 275.007 376.104 276.057 374.174 276.117C373.584 276.117 372.704 276.257 372.834 277.057C372.964 277.857 373.734 277.737 374.394 277.777C376.804 277.907 378.564 276.817 380.174 274.347V274.387ZM381.754 274.387C383.504 273.687 386.264 274.927 385.464 271.257C384.074 271.937 382.394 272.147 381.754 274.287V274.387ZM391.034 274.047L386.684 277.587C386.464 277.757 385.594 277.187 386.064 278.097C386.299 278.33 386.613 278.466 386.944 278.477C388.044 276.887 390.704 276.927 391.034 273.987V274.047ZM272.534 295.407L279.004 291.767C276.494 292.165 274.204 293.432 272.534 295.347V295.407Z" fill="black"/>
<path d="M379.744 327.497C374.344 329.047 369.664 327.907 365.804 323.727C364.854 322.727 363.624 321.727 362.224 322.217C358.564 323.397 354.654 323.087 351.044 324.767C345.493 327.357 340.324 330.767 334.424 332.567C332.194 333.257 329.954 333.907 327.674 334.567C327.454 335.737 328.864 334.897 329.074 335.567C328.804 335.677 328.534 335.897 328.314 335.847C324.564 335.087 320.314 335.437 317.704 331.947C316.704 330.627 315.214 330.297 314.234 329.067C313.894 328.637 311.974 329.157 310.924 329.617C305.064 332.167 299.284 334.917 293.394 337.417C291.283 338.22 289.108 338.845 286.894 339.287C286.442 339.467 285.942 339.485 285.479 339.337C285.015 339.189 284.618 338.885 284.354 338.477C283.724 337.657 282.464 335.897 280.834 337.627C279.674 336.267 277.334 337.627 276.344 335.297C275.224 332.677 273.124 333.107 270.544 334.027C266.974 335.297 265.304 338.837 261.904 340.027C261.571 340.179 261.275 340.4 261.035 340.676C260.795 340.952 260.618 341.276 260.514 341.627C260.314 342.127 260.024 342.947 259.704 342.977C256.704 343.257 256.994 346.387 255.344 347.777C252.734 350.007 250.174 352.347 246.724 353.267C245.644 353.557 245.724 353.587 245.124 354.997C245.024 355.237 244.554 355.387 244.234 355.477C242.004 356.077 241.044 355.537 238.644 353.017C238.184 352.537 236.974 352.777 236.114 352.657C233.114 352.257 232.404 349.097 230.114 347.787C229.704 347.547 229.114 346.627 228.904 347.227C227.994 349.747 224.624 349.667 223.904 352.287C223.566 353.129 223.081 353.904 222.474 354.577C221.884 355.367 221.154 356.337 220.144 356.177C219.294 356.037 219.214 354.887 219.224 354.097C219.224 352.507 216.873 352.807 217.023 350.777C217.198 348.601 217.939 346.508 219.174 344.707C222.024 340.487 223.264 335.707 224.874 330.967C225.334 329.627 225.754 328.677 227.344 328.597C228.934 328.517 229.543 329.097 230.533 330.347C232.28 332.786 233.63 335.486 234.533 338.347C234.71 339.018 235.144 339.591 235.742 339.943C236.339 340.296 237.052 340.397 237.724 340.227C241.254 339.587 244.604 338.577 246.824 335.377C250.914 329.497 256.943 325.977 262.773 322.157C264.142 321.137 265.448 320.035 266.684 318.857C268.127 317.613 269.968 316.925 271.874 316.917C273.874 316.917 275.064 318.007 275.964 319.857C278.454 324.927 280.694 325.657 285.964 323.617C291.664 321.427 297.304 319.037 303.124 317.277C305.824 316.457 308.304 314.937 311.304 314.877C313.834 314.877 316.104 315.157 317.504 317.357C319.024 319.747 321.074 319.867 323.444 319.357C329.815 317.921 336 315.753 341.874 312.897C346.318 310.641 350.953 308.78 355.724 307.337C359.314 306.337 363.014 306.337 365.934 309.257C368.374 311.657 371.124 311.847 374.244 311.137C382.084 309.347 389.384 306.137 396.684 302.897C405.214 299.147 413.394 294.627 422.144 291.357C424.214 290.587 426.274 289.607 428.654 290.607C427.834 292.407 426.244 292.487 424.924 292.857C422.054 293.648 419.291 294.783 416.694 296.237C416.364 296.417 415.694 296.697 416.064 297.237C416.434 297.777 416.773 297.307 417.273 297.097C420.663 295.617 423.754 293.247 427.724 293.457C428.724 293.457 430.143 292.927 429.523 294.977C429.303 295.707 430.234 295.587 430.624 295.877C431.014 296.167 431.624 296.647 431.294 296.877C430.174 297.717 430.214 299.587 429.134 300.027C424.889 301.752 420.845 303.935 417.074 306.537C412.934 309.397 407.754 310.797 404.624 315.087C401.304 314.887 400.414 319.177 396.834 319.087C394.514 319.007 392.834 321.567 391.054 322.977C387.574 325.717 383.634 326.567 379.624 327.517C381.574 325.657 384.484 325.787 386.544 324.137C383.294 325.377 379.874 325.907 376.544 326.877C377.574 327.867 378.944 326.047 379.744 327.497ZM301.014 322.307C294.754 322.387 289.674 326.607 283.584 327.307C282.934 327.377 282.234 327.907 282.434 328.577C282.674 329.407 283.563 329.327 284.273 329.137C287.273 328.337 290.174 327.137 293.134 326.447C296.244 325.707 298.454 323.837 300.954 322.247C304.484 322.367 307.524 320.767 310.804 319.587C308.564 317.567 304.104 318.897 301.014 322.287V322.307ZM340.474 317.057C334.742 319.719 328.722 321.712 322.534 322.997C325.694 324.947 337.774 320.877 340.474 317.057ZM359.033 311.407C357.313 309.777 352.383 311.167 350.533 313.837C353.093 312.217 356.123 312.287 359.033 311.407ZM237.894 344.137C240.894 344.517 242.814 344.137 244.364 341.497C242.054 342.397 240.044 342.497 237.894 344.137ZM342.954 317.477C344.544 316.197 346.894 315.897 348.054 313.967C346.264 314.997 343.354 314.287 342.954 317.477ZM327.784 332.147C331.093 332.485 334.407 331.552 337.054 329.537L327.784 332.147ZM294.694 335.027C292.137 335.245 289.667 336.06 287.484 337.407C290.07 337.349 292.581 336.52 294.694 335.027ZM373.014 315.137L373.144 315.927C375.652 316.011 378.109 315.199 380.074 313.637L373.014 315.137Z" fill="black"/>
<path d="M349.023 376.567C350.113 377.077 351.474 376.167 352.374 377.567C351.097 378.425 349.535 378.748 348.023 378.467C347.239 378.274 346.419 378.274 345.634 378.467C343.704 379.127 342.244 379.127 342.234 376.387C342.234 375.127 337.654 372.767 336.164 373.037C334.314 373.387 332.014 373.297 330.684 374.037C327.124 376.037 322.754 376.887 320.164 380.457C319.654 381.147 318.923 381.047 318.283 381.297C315.893 382.227 312.894 381.847 311.424 384.817C310.854 385.977 310.584 383.617 309.344 384.217C307.811 384.758 306.198 385.036 304.574 385.037C300.574 385.377 298.404 384.337 297.714 380.607C297.264 378.177 296.284 379.067 295.004 379.387C295.494 378.207 296.644 377.047 294.314 376.877C292.784 376.767 292.724 375.017 291.974 374.077C291.454 373.417 292.544 373.737 292.974 373.597C293.644 373.347 294.434 373.067 294.574 372.157C293.734 372.057 294.014 370.337 292.574 370.907C291.674 371.267 290.704 370.727 289.764 370.017C290.564 372.147 288.764 373.527 288.594 375.377C288.454 376.747 287.883 378.127 288.273 379.547C288.533 380.547 287.804 380.957 287.504 380.427C286.624 378.827 284.383 378.517 284.043 376.427C283.913 375.617 284.354 375.497 284.814 375.267C285.274 375.037 286.654 375.447 286.154 374.667C285.154 373.157 285.624 371.667 285.424 370.157C283.604 371.867 284.074 368.957 283.004 368.867C282.754 368.867 282.484 367.057 283.654 367.067C286.654 367.067 286.394 364.707 286.234 363.167C285.984 360.757 287.234 359.627 288.894 358.537C289.894 359.057 288.474 360.907 290.254 361.017C291.694 361.107 291.534 359.687 292.174 359.017C292.524 358.657 293.014 358.187 292.594 357.597C292.174 357.007 291.594 357.387 291.094 357.517C288.634 358.197 288.844 355.847 289.334 355.307C290.884 353.597 291.564 351.227 293.514 349.877C295.464 348.527 297.014 349.017 297.454 351.457C297.506 351.723 297.639 351.967 297.834 352.157C301.834 355.987 301.004 360.887 300.734 365.597C300.514 369.597 300.654 369.777 304.644 368.817C309.284 367.687 313.404 365.377 317.644 363.357C322.534 361.037 327.334 358.497 332.644 357.097C336.814 355.987 340.644 356.657 343.394 360.277C344.854 362.177 346.444 362.387 348.614 361.527C355.874 358.687 362.484 354.637 369.194 350.767C372.496 348.919 375.948 347.354 379.514 346.087C381.475 345.326 383.623 345.192 385.664 345.705C387.704 346.217 389.535 347.35 390.904 348.947C393.734 352.067 396.904 352.797 400.904 352.227C412.014 350.617 422.564 347.037 433.094 343.377C443.954 339.607 454.624 335.377 465.214 330.867C465.793 330.601 466.41 330.429 467.043 330.357C468.043 330.277 469.324 330.237 469.644 331.297C469.894 332.127 468.644 332.297 468.004 332.847C467.364 333.397 466.004 333.317 466.464 334.357C466.924 335.397 468.034 334.567 468.874 334.527C470.014 334.527 472.644 332.997 470.704 336.267C470.67 336.385 470.663 336.509 470.684 336.631C470.705 336.752 470.752 336.867 470.824 336.967C473.264 340.177 472.014 342.967 468.053 344.547C465.281 345.657 462.605 346.995 460.053 348.547C455.133 351.547 449.834 353.717 444.714 356.237C435.776 360.698 426.537 364.527 417.064 367.697C411.566 369.575 405.781 370.469 399.974 370.337C399.521 370.262 399.057 370.283 398.612 370.398C398.168 370.513 397.753 370.721 397.394 371.007C398.083 371.682 398.969 372.12 399.924 372.257C398.384 371.957 396.714 372.027 395.604 370.537C395.134 369.907 394.454 369.967 393.724 369.847C392.724 369.687 390.984 369.567 391.914 367.607C391.965 367.445 391.995 367.277 392.004 367.107C389.754 367.687 390.534 364.917 389.214 364.567C387.605 364.118 386.156 363.224 385.033 361.987C384.593 361.606 384.064 361.34 383.495 361.214C382.926 361.089 382.334 361.107 381.773 361.267C380.773 361.417 379.554 362.937 379.354 360.537C379.026 360.452 378.682 360.452 378.354 360.537C378.244 360.573 378.144 360.635 378.063 360.718C377.982 360.801 377.923 360.902 377.889 361.013C377.856 361.124 377.85 361.242 377.871 361.355C377.893 361.469 377.942 361.576 378.014 361.667C378.644 362.757 378.434 363.787 377.334 364.087C375.584 364.577 374.514 366.477 372.574 366.347C371.574 366.277 372.094 364.927 371.264 364.347C370.644 365.757 368.204 365.997 369.064 368.277C369.064 368.367 368.844 368.677 368.744 368.667C366.984 368.507 366.744 369.417 366.364 370.987C365.984 372.557 363.603 372.747 362.043 373.407C361.803 373.507 361.374 373.647 361.374 373.787C361.254 377.457 358.213 375.057 356.773 375.987C356.323 376.267 355.944 375.777 355.594 375.237C354.184 373.067 352.934 373.047 351.364 374.847C350.654 375.51 349.868 376.087 349.023 376.567ZM406.624 356.007C403.373 355.84 400.115 355.904 396.874 356.197C396.524 356.307 396.104 356.417 396.214 356.867C396.288 357.213 396.488 357.519 396.773 357.727C398.673 358.817 404.774 357.727 406.624 356.007ZM377.834 350.357C379.834 352.227 382.254 351.017 384.504 351.037C385.034 351.037 385.304 350.667 385.334 350.167C385.364 349.667 385.094 349.347 384.744 349.487C382.504 350.407 379.894 348.287 377.834 350.357ZM307.094 371.767C305.424 371.977 303.744 372.137 302.094 372.457C301.644 372.537 300.734 371.767 300.704 373.007C300.704 373.927 301.234 374.147 301.994 374.397C304.414 375.207 305.594 373.287 307.094 371.767ZM411.803 366.927C408.053 367.747 404.204 368.017 400.414 368.667C404.434 369.407 408.113 368.137 411.803 366.927ZM401.053 363.067L401.114 363.497C403.784 363.157 406.464 362.827 409.114 362.497C409.22 362.448 409.313 362.372 409.383 362.278C409.452 362.184 409.498 362.073 409.514 361.957C409.497 361.844 409.457 361.736 409.397 361.639C409.337 361.542 409.258 361.459 409.164 361.394C409.07 361.329 408.964 361.285 408.852 361.263C408.74 361.241 408.625 361.242 408.514 361.267C406.034 361.817 403.543 362.447 401.053 363.067ZM417.414 352.697C415.034 352.697 413.024 353.817 410.934 354.637C413.024 353.787 415.894 356.107 417.414 352.697ZM288.043 365.207C287.233 365.937 286.474 366.457 286.914 367.497C287.354 368.537 288.294 369.007 290.204 369.147C288.324 368.077 288.623 366.607 288.043 365.207ZM306.894 383.287C304.964 381.337 304.964 381.337 302.664 383.767L306.894 383.287Z" fill="black"/>
</svg>
