<svg width="155" height="100" viewBox="0 0 155 100" fill="none" xmlns="http://www.w3.org/2000/svg">
<g opacity="0.05">
<path d="M48.8666 45.1787C47.0535 46.2666 45.5558 47.2283 44.0028 48.0875C42.4499 48.9468 40.8497 49.8139 38.6819 48.7497C37.6334 48.2215 36.0017 48.19 34.6064 48.1821C34.3244 48.2262 34.0402 48.2551 33.7551 48.2688C33.4623 48.2623 33.1804 48.1566 32.9556 47.969C32.7308 47.7814 32.5763 47.523 32.5174 47.2362C32.2731 45.4152 28.6864 44.3116 31.0591 42.0413C34.0388 39.2114 35.9386 35.6167 38.5321 32.5818C43.0805 27.1978 48.7799 23.0593 54.3452 18.7552C58.9173 15.1921 63.5682 11.7315 68.1876 8.23151C71.49 5.84053 74.9419 3.66303 78.5221 1.71234C78.8977 1.50161 79.2939 1.32992 79.7045 1.19995C80.1066 1.07382 80.6111 0.892517 80.9106 1.26301C81.2102 1.63351 80.8318 2.05131 80.6111 2.39815C80.2091 3.04455 79.4759 3.486 79.3104 4.76303C80.6189 3.97474 81.6753 3.3441 82.771 2.75288C83.6854 2.25626 84.521 2.16167 84.3949 3.60424C84.3397 4.15604 84.3397 4.39253 84.9782 4.39253C87.4061 4.23487 87.3431 5.58285 86.5548 7.46687L88.1314 6.78105C88.3284 7.96349 87.075 8.39705 87.1302 9.35876C87.4928 9.48489 87.7687 8.93309 88.1787 9.30359C88.1199 9.4839 88.0291 9.65213 87.9107 9.80021C87.0751 10.5885 86.1764 11.3058 85.3802 12.1178C84.182 13.3475 84.2372 13.8205 85.6483 15.0029C86.1291 15.3971 85.9084 15.7912 85.7113 16.1223C85.4988 16.495 85.2618 16.8531 85.0019 17.1944C84.8048 17.486 84.5841 17.7698 84.3555 18.0694C84.923 18.4951 85.1438 17.8802 85.4433 17.7383C85.7429 17.5964 86.1685 17.352 86.8149 17.0052C86.4087 18.1619 85.678 19.1772 84.7102 19.9298C75.432 28.6404 65.7912 37.0514 55.7011 44.9501C54.2821 46.0616 53.0051 47.4963 50.7033 47.2677C49.2607 47.1258 48.5986 46.9287 48.8666 45.1787ZM74.7777 8.0502C71.5565 9.70783 68.67 11.9475 66.2642 14.6561L74.7777 8.0502Z" fill="#0E101B"/>
<path d="M145.093 5.66944C146.741 5.36989 147.679 4.55007 148.751 4.00615C149.334 3.71448 149.933 2.89466 150.603 3.74601C151.274 4.59737 150.485 5.01516 149.973 5.5039C149.689 5.7798 149.445 6.103 149.137 6.45773C150.067 6.73364 150.619 6.26066 151.234 5.90593C151.723 5.63003 152.227 4.74714 152.85 5.55908C153.117 5.789 153.304 6.09688 153.386 6.4392C153.468 6.78152 153.441 7.14098 153.307 7.46675C152.975 8.40476 152.378 9.22629 151.589 9.83162C151.849 9.8868 151.991 9.97351 152.062 9.92621C152.629 9.57937 153.181 8.55459 153.812 9.2404C154.442 9.92622 153.418 10.4386 152.984 10.9668C144.226 21.7348 132.402 29.1763 122.603 38.825C120.341 41.048 117.085 41.2529 114.255 42.1831C113.68 41.2923 114.768 40.9376 114.555 40.2912C110.613 41.986 104.425 37.9263 106.459 32.763C105.734 32.3689 104.796 33.8903 104.252 32.6369C103.645 31.218 103.314 29.6729 104.552 28.4116C106.128 26.772 107.831 25.2112 109.526 23.6819C112.915 20.6154 116.336 17.5884 119.773 14.5377C120.86 13.4949 122.089 12.6112 123.423 11.9127C124.077 11.5895 124.96 11.2032 125.441 11.7393C126.726 13.1819 127.68 12.2123 128.721 11.5264C133.995 7.95176 139.546 4.80434 145.322 2.11425C145.769 1.89296 146.23 1.70075 146.701 1.5388C146.87 1.47211 147.056 1.46219 147.231 1.51055C147.406 1.55891 147.56 1.6629 147.671 1.80682C147.915 2.19308 147.576 2.4611 147.348 2.72912C146.607 3.57259 145.645 4.2584 145.093 5.66944ZM129.391 31.1628C131.654 29.5855 133.711 27.7318 135.516 25.6447C133.192 27.119 131.106 28.937 129.328 31.0367C127.27 32.0378 126.119 33.9691 124.684 35.6087C126.245 34.1189 128.184 33.0074 129.391 31.1628ZM138.7 9.46901C136.107 11.2821 133.056 12.433 131.054 15.0265C133.624 13.1582 136.832 12.2438 138.7 9.42959V9.46901Z" fill="#0E101B"/>
<path d="M30.7123 3.09978C31.5953 2.73814 32.5078 2.4533 33.4397 2.24843C34.1571 2.1696 34.6931 0.995044 35.5366 1.85428C36.3801 2.71352 35.0164 3.21802 35.1977 4.02996C36.2224 4.74731 36.9713 2.3509 38.1301 3.78559C38.9972 4.83402 38.6109 5.74056 38.0828 6.7338C38.7134 6.80475 39.1312 6.12682 39.8643 6.56038C38.6819 7.78223 38.8947 9.20115 39.344 10.6201C39.7303 11.8104 38.7134 12.3701 38.1459 12.8667C31.7055 18.4872 26.6447 25.3532 21.032 31.7148C20.2434 32.7449 19.1339 33.4827 17.8789 33.8116C19.9363 30.0593 23.3418 27.3949 26.1244 23.5086C23.7859 25.4633 21.6302 27.6269 19.684 29.9726C18.7223 31.0289 17.7922 32.1089 16.7595 33.0864C16.1919 33.6224 15.5771 34.4817 14.6075 33.5436C14.2212 33.1731 13.7482 33.4175 13.4566 33.7249C12.4081 34.8206 10.7606 34.7654 9.67279 35.7744C9.45858 35.9282 9.2092 36.0258 8.94753 36.0582C8.26171 34.7733 6.52748 35.0098 5.84955 34.2294C4.88783 33.1021 4.48583 32.8499 3.55564 34.056C3.40872 34.1991 3.22986 34.3051 3.03385 34.3654C2.83784 34.4257 2.63033 34.4386 2.42839 34.4028C1.89235 34.2294 2.15249 33.6776 2.23132 33.2834C2.74371 30.7452 2.73581 30.7294 0.244809 31.3679C-0.0816029 30.5669 -0.0816029 29.67 0.244809 28.869C2.66486 24.3206 4.3912 19.4095 8.75045 16.0199C14.0557 11.905 18.9983 7.34867 24.1537 3.01307C26.1323 1.34189 28.576 0.742791 31.0118 0.167338C31.4848 0.0490946 32.1154 -0.187393 32.4229 0.269816C32.7303 0.727025 32.1312 1.05811 31.8316 1.46014C31.5321 1.86216 31.2799 2.26419 30.7123 3.09978Z" fill="#0E101B"/>
<path d="M85.6482 80.7069C85.724 80.7838 85.7832 80.8755 85.8221 80.9763C85.8611 81.077 85.8788 81.1847 85.8744 81.2926C85.87 81.4005 85.8434 81.5064 85.7964 81.6036C85.7493 81.7008 85.6828 81.7874 85.6009 81.8578C80.8712 86.1697 76.1414 90.529 71.1121 94.4705C70.8723 94.5852 70.6214 94.675 70.3632 94.7385L71.1515 93.2328C69.3385 94.6675 67.0682 95.5347 66.6425 98.27C66.3429 100.186 65.0186 100.501 63.4893 99.2633C63.2685 99.092 63.0134 98.9703 62.7414 98.9063C62.4694 98.8424 62.1867 98.8378 61.9127 98.8928C60.9945 98.9617 60.0728 98.8146 59.2217 98.4633C58.3705 98.112 57.6134 97.5662 57.0111 96.8696C56.4088 96.173 55.978 95.3451 55.7532 94.4521C55.5285 93.5591 55.516 92.6259 55.7168 91.7272C56.0818 90.5813 55.9798 89.3377 55.433 88.2666C55.1151 87.7045 54.9996 87.0504 55.1058 86.4135C55.2119 85.7765 55.5333 85.1952 56.0163 84.7666C56.6029 84.1383 57.2557 83.5753 57.9634 83.0875C66.1301 77.806 72.9409 70.7902 80.6268 64.9568C81.7091 64.139 82.8354 63.3811 84.0007 62.6866C84.6077 62.3239 85.4275 62.0007 86.0108 62.5762C86.7281 63.2935 85.861 63.8296 85.53 64.405C85.3565 64.7125 85.1516 65.0041 84.8678 65.4456C86.0817 65.2958 86.8622 64.539 87.7923 64.1291C88.3363 63.8848 89.1797 63.53 89.3689 64.0267C90.2439 66.3915 93.3104 66.1472 94.3588 68.3386C94.6154 68.8026 94.712 69.3382 94.6336 69.8625C94.5552 70.3869 94.3063 70.8708 93.9253 71.2395C91.7619 73.9706 89.3899 76.5297 86.8307 78.8938C86.2309 79.395 85.7147 79.9884 85.3014 80.6517C85.2903 80.6779 85.2846 80.7061 85.2846 80.7345C85.2846 80.7629 85.2903 80.7911 85.3014 80.8173C85.4326 80.8251 85.5643 80.8251 85.6955 80.8173L85.6482 80.7069Z" fill="#0E101B"/>
</g>
</svg>
