<svg width="1039" height="104" viewBox="0 0 1039 104" fill="none" xmlns="http://www.w3.org/2000/svg">
<mask id="path-1-outside-1" maskUnits="userSpaceOnUse" x="0" y="0" width="1039" height="104" fill="black">
<rect fill="white" width="1039" height="104"/>
<path d="M63.1374 4.0537V59.8199C63.1374 79.4092 54.4487 82.5687 43.7062 82.5687C32.9637 82.5687 24.4329 79.4092 24.4329 59.8199V4.0537H2V59.8199C2 96.9447 21.2733 102 43.7062 102C66.139 102 85.5703 96.9447 85.5703 59.8199V4.0537H63.1374Z"/>
<path d="M147.781 41.4945C134.353 39.4408 122.189 38.8088 122.189 30.752C122.189 24.7488 127.402 21.2733 140.83 21.2733C153.153 21.2733 159.63 26.8025 159.63 33.2796H182.695C182.695 15.9021 172.426 2 141.146 2C112.71 2 99.9142 13.3744 99.9142 32.8057C99.9142 52.237 111.763 56.9763 131.668 61.0837C153.153 65.6651 163.105 65.1912 163.105 73.09C163.105 79.5671 156.312 82.5687 143.99 82.5687C132.932 82.5687 121.873 79.4092 121.873 68.8246H98.0185C98.0185 89.6777 111.131 102 142.41 102C171.636 102 187.75 92.5213 187.75 69.4566C187.75 45.2859 167.845 44.812 147.781 41.4945Z"/>
<path d="M275.682 80.515H223.391V60.4518H271.416V40.8626H223.391V23.485H274.734V4.0537H200.958V99.9463H275.682V80.515Z"/>
<path d="M349.64 79.2512C349.482 87.94 350.746 99.9463 350.746 99.9463C350.746 99.9463 370.335 99.9463 373.337 99.9463C373.337 89.5197 373.021 88.2559 373.021 76.2496C373.021 61.8736 363.068 56.6603 357.855 56.6603C365.438 55.2385 373.811 50.1833 373.811 35.3333C373.811 15.7441 361.962 4.0537 340.004 4.0537H290.241V99.9463H312.673V66.613C312.673 66.613 327.997 66.613 338.898 66.613C344.585 66.613 349.956 70.5624 349.64 79.2512ZM312.673 23.485H339.214C349.64 23.485 350.904 30.91 350.904 35.3333C350.904 39.9147 349.64 47.3396 339.214 47.3396H312.673V23.485Z"/>
<path d="M473.368 82.5687C457.254 82.5687 449.039 70.5624 449.039 52.079C449.039 33.4376 457.254 21.2733 473.368 21.2733C487.428 21.2733 494.379 30.278 496.906 43.3902H519.971C516.18 13.2164 494.221 2 473.368 2C450.461 2 426.132 15.2701 426.29 52.079C426.29 88.5719 450.461 102 473.368 102C494.221 102 516.18 90.7836 519.971 60.6098H496.906C494.379 73.722 487.428 82.5687 473.368 82.5687Z"/>
<path d="M607.818 80.515H555.527V60.4518H603.553V40.8626H555.527V23.485H606.87V4.0537H533.094V99.9463H607.818V80.515Z"/>
<path d="M686.516 4.0537V67.8768L646.389 4.0537H622.377V99.9463H644.81V36.1232L684.936 99.9463H708.948V4.0537H686.516Z"/>
<path d="M801.2 23.485V4.0537H718.894V23.485H748.752V99.9463H771.342V23.485H801.2Z"/>
<path d="M870.523 79.2512C870.365 87.94 871.629 99.9463 871.629 99.9463C871.629 99.9463 891.218 99.9463 894.22 99.9463C894.22 89.5197 893.904 88.2559 893.904 76.2496C893.904 61.8736 883.951 56.6603 878.738 56.6603C886.321 55.2385 894.693 50.1833 894.693 35.3333C894.693 15.7441 882.845 4.0537 860.886 4.0537H811.123V99.9463H833.556V66.613C833.556 66.613 848.88 66.613 859.78 66.613C865.468 66.613 870.839 70.5624 870.523 79.2512ZM833.556 23.485H860.096C870.523 23.485 871.787 30.91 871.787 35.3333C871.787 39.9147 870.523 47.3396 860.096 47.3396H833.556V23.485Z"/>
<path d="M907.193 4.0537V99.9463H929.626V4.0537H907.193Z"/>
<path d="M990.085 82.5687C973.971 82.5687 965.756 70.5624 965.756 52.079C965.756 33.4376 973.971 21.2733 990.085 21.2733C1004.14 21.2733 1011.1 30.278 1013.62 43.3902H1036.69C1032.9 13.2164 1010.94 2 990.085 2C967.178 2 942.85 15.2701 943.008 52.079C943.008 88.5719 967.178 102 990.085 102C1010.94 102 1032.9 90.7836 1036.69 60.6098H1013.62C1011.1 73.722 1004.14 82.5687 990.085 82.5687Z"/>
</mask>
<path d="M63.1374 4.0537V59.8199C63.1374 79.4092 54.4487 82.5687 43.7062 82.5687C32.9637 82.5687 24.4329 79.4092 24.4329 59.8199V4.0537H2V59.8199C2 96.9447 21.2733 102 43.7062 102C66.139 102 85.5703 96.9447 85.5703 59.8199V4.0537H63.1374Z" stroke="#DDDDE3" stroke-width="4" mask="url(#path-1-outside-1)"/>
<path d="M147.781 41.4945C134.353 39.4408 122.189 38.8088 122.189 30.752C122.189 24.7488 127.402 21.2733 140.83 21.2733C153.153 21.2733 159.63 26.8025 159.63 33.2796H182.695C182.695 15.9021 172.426 2 141.146 2C112.71 2 99.9142 13.3744 99.9142 32.8057C99.9142 52.237 111.763 56.9763 131.668 61.0837C153.153 65.6651 163.105 65.1912 163.105 73.09C163.105 79.5671 156.312 82.5687 143.99 82.5687C132.932 82.5687 121.873 79.4092 121.873 68.8246H98.0185C98.0185 89.6777 111.131 102 142.41 102C171.636 102 187.75 92.5213 187.75 69.4566C187.75 45.2859 167.845 44.812 147.781 41.4945Z" stroke="#DDDDE3" stroke-width="4" mask="url(#path-1-outside-1)"/>
<path d="M275.682 80.515H223.391V60.4518H271.416V40.8626H223.391V23.485H274.734V4.0537H200.958V99.9463H275.682V80.515Z" stroke="#DDDDE3" stroke-width="4" mask="url(#path-1-outside-1)"/>
<path d="M349.64 79.2512C349.482 87.94 350.746 99.9463 350.746 99.9463C350.746 99.9463 370.335 99.9463 373.337 99.9463C373.337 89.5197 373.021 88.2559 373.021 76.2496C373.021 61.8736 363.068 56.6603 357.855 56.6603C365.438 55.2385 373.811 50.1833 373.811 35.3333C373.811 15.7441 361.962 4.0537 340.004 4.0537H290.241V99.9463H312.673V66.613C312.673 66.613 327.997 66.613 338.898 66.613C344.585 66.613 349.956 70.5624 349.64 79.2512ZM312.673 23.485H339.214C349.64 23.485 350.904 30.91 350.904 35.3333C350.904 39.9147 349.64 47.3396 339.214 47.3396H312.673V23.485Z" stroke="#DDDDE3" stroke-width="4" mask="url(#path-1-outside-1)"/>
<path d="M473.368 82.5687C457.254 82.5687 449.039 70.5624 449.039 52.079C449.039 33.4376 457.254 21.2733 473.368 21.2733C487.428 21.2733 494.379 30.278 496.906 43.3902H519.971C516.18 13.2164 494.221 2 473.368 2C450.461 2 426.132 15.2701 426.29 52.079C426.29 88.5719 450.461 102 473.368 102C494.221 102 516.18 90.7836 519.971 60.6098H496.906C494.379 73.722 487.428 82.5687 473.368 82.5687Z" stroke="#DDDDE3" stroke-width="4" mask="url(#path-1-outside-1)"/>
<path d="M607.818 80.515H555.527V60.4518H603.553V40.8626H555.527V23.485H606.87V4.0537H533.094V99.9463H607.818V80.515Z" stroke="#DDDDE3" stroke-width="4" mask="url(#path-1-outside-1)"/>
<path d="M686.516 4.0537V67.8768L646.389 4.0537H622.377V99.9463H644.81V36.1232L684.936 99.9463H708.948V4.0537H686.516Z" stroke="#DDDDE3" stroke-width="4" mask="url(#path-1-outside-1)"/>
<path d="M801.2 23.485V4.0537H718.894V23.485H748.752V99.9463H771.342V23.485H801.2Z" stroke="#DDDDE3" stroke-width="4" mask="url(#path-1-outside-1)"/>
<path d="M870.523 79.2512C870.365 87.94 871.629 99.9463 871.629 99.9463C871.629 99.9463 891.218 99.9463 894.22 99.9463C894.22 89.5197 893.904 88.2559 893.904 76.2496C893.904 61.8736 883.951 56.6603 878.738 56.6603C886.321 55.2385 894.693 50.1833 894.693 35.3333C894.693 15.7441 882.845 4.0537 860.886 4.0537H811.123V99.9463H833.556V66.613C833.556 66.613 848.88 66.613 859.78 66.613C865.468 66.613 870.839 70.5624 870.523 79.2512ZM833.556 23.485H860.096C870.523 23.485 871.787 30.91 871.787 35.3333C871.787 39.9147 870.523 47.3396 860.096 47.3396H833.556V23.485Z" stroke="#DDDDE3" stroke-width="4" mask="url(#path-1-outside-1)"/>
<path d="M907.193 4.0537V99.9463H929.626V4.0537H907.193Z" stroke="#DDDDE3" stroke-width="4" mask="url(#path-1-outside-1)"/>
<path d="M990.085 82.5687C973.971 82.5687 965.756 70.5624 965.756 52.079C965.756 33.4376 973.971 21.2733 990.085 21.2733C1004.14 21.2733 1011.1 30.278 1013.62 43.3902H1036.69C1032.9 13.2164 1010.94 2 990.085 2C967.178 2 942.85 15.2701 943.008 52.079C943.008 88.5719 967.178 102 990.085 102C1010.94 102 1032.9 90.7836 1036.69 60.6098H1013.62C1011.1 73.722 1004.14 82.5687 990.085 82.5687Z" stroke="#DDDDE3" stroke-width="4" mask="url(#path-1-outside-1)"/>
</svg>
